<?xml version="1.0" encoding="iso-8859-1"?>
<!-- Uploaded to: SVG Repo, www.svgrepo.com, Generator: SVG Repo Mixer Tools -->
<!DOCTYPE svg PUBLIC "-//W3C//DTD SVG 1.1//EN" "http://www.w3.org/Graphics/SVG/1.1/DTD/svg11.dtd">
<svg fill="#000000" height="800px" width="800px" version="1.1" id="Capa_1" xmlns="http://www.w3.org/2000/svg" xmlns:xlink="http://www.w3.org/1999/xlink" 
	 viewBox="0 0 463.185 463.185" xml:space="preserve">
<g>
	<path d="M83.083,311.884c-13.807,0-25.039,11.232-25.039,25.039s11.232,25.04,25.039,25.04s25.039-11.233,25.039-25.04
		S96.89,311.884,83.083,311.884z M83.083,346.963c-5.535,0-10.039-4.504-10.039-10.04s4.504-10.039,10.039-10.039
		s10.039,4.503,10.039,10.039S88.618,346.963,83.083,346.963z"/>
	<path d="M380.97,311.884c-13.807,0-25.039,11.232-25.039,25.039s11.232,25.04,25.039,25.04c13.806,0,25.038-11.233,25.038-25.04
		S394.775,311.884,380.97,311.884z M380.97,346.963c-5.535,0-10.039-4.504-10.039-10.04s4.504-10.039,10.039-10.039
		s10.038,4.503,10.038,10.039S386.505,346.963,380.97,346.963z"/>
	<path d="M462.636,219.623l-36.459-89.995c-1.146-2.832-3.896-4.684-6.951-4.684H296.23V83.506c0-4.142-3.357-7.5-7.5-7.5H7.5
		c-4.143,0-7.5,3.358-7.5,7.5v256.2c0,4.142,3.357,7.5,7.5,7.5h26.389c4.759,22.796,25.007,39.974,49.194,39.974
		s44.435-17.178,49.193-39.974l199.499-0.001c4.758,22.796,25.007,39.975,49.195,39.975s44.436-17.178,49.194-39.975h25.521
		c4.143,0,7.5-3.358,7.5-7.5V222.439C463.185,221.474,462.998,220.518,462.636,219.623z M15,325.676h19.112
		c-0.489,2.13-0.849,4.307-1.056,6.53H15V325.676z M83.083,372.179c-19.44,0-35.256-15.816-35.256-35.256
		s15.815-35.255,35.256-35.255c19.439,0,35.255,15.815,35.255,35.255S102.522,372.179,83.083,372.179z M281.23,332.205H133.109
		c-2.387-25.506-23.907-45.538-50.026-45.538c-18.097,0-33.986,9.618-42.836,24.008H15V91.006h266.23V332.205z M380.97,372.179
		c-19.44,0-35.256-15.816-35.256-35.256s15.815-35.255,35.256-35.255c19.439,0,35.255,15.815,35.255,35.255
		S400.409,372.179,380.97,372.179z M380.97,286.668c-26.119,0-47.64,20.031-50.027,45.537h-34.711v-192.26h117.94l34.013,83.957
		v86.775h-24.379C414.956,296.286,399.067,286.668,380.97,286.668z M430.996,332.204c-0.208-2.222-0.567-4.399-1.056-6.529h18.245
		v6.529H430.996z"/>
	<path d="M439.9,230.916c1.394-2.068,1.668-4.695,0.731-7.007l-29.28-72.28c-1.146-2.832-3.896-4.684-6.951-4.684h-93.67
		c-4.143,0-7.5,3.358-7.5,7.5v72.28c0,4.142,3.357,7.5,7.5,7.5h122.95C436.175,234.225,438.507,232.985,439.9,230.916z
		 M318.23,219.225v-57.28h81.116l23.204,57.28H318.23z"/>
	<path d="M433.681,257.725c-4.143,0-7.5,3.358-7.5,7.5v18.95c0,4.142,3.357,7.5,7.5,7.5s7.5-3.358,7.5-7.5v-18.95
		C441.181,261.083,437.823,257.725,433.681,257.725z"/>
	<path d="M29.782,120.342h236.666c4.143,0,7.5-3.358,7.5-7.5s-3.357-7.5-7.5-7.5H29.782c-4.143,0-7.5,3.358-7.5,7.5
		S25.64,120.342,29.782,120.342z"/>
	<path d="M29.782,168.786h215.722c4.143,0,7.5-3.358,7.5-7.5s-3.357-7.5-7.5-7.5H29.782c-4.143,0-7.5,3.358-7.5,7.5
		S25.64,168.786,29.782,168.786z"/>
	<path d="M272.686,157.121c-1.768-2.584-5.002-3.88-8.058-3.107c-2.922,0.739-5.14,3.197-5.598,6.171
		c-0.455,2.958,1.003,6.004,3.567,7.531c2.858,1.703,6.607,1.311,9.017-0.999C274.222,164.217,274.669,160.139,272.686,157.121
		C272.405,156.711,272.955,157.531,272.686,157.121z"/>
	<path d="M266.448,250.676H50.727c-4.143,0-7.5,3.358-7.5,7.5s3.357,7.5,7.5,7.5h215.722c4.143,0,7.5-3.358,7.5-7.5
		S270.591,250.676,266.448,250.676z"/>
	<path d="M36.705,255.311c-2.018-4.899-8.479-6.086-12.229-2.44c-3.974,4.094-2.11,11.16,3.482,12.577
		C33.805,266.931,39.057,260.87,36.705,255.311C36.516,254.851,36.896,255.761,36.705,255.311z"/>
	<path d="M29.782,217.231h236.666c4.143,0,7.5-3.358,7.5-7.5s-3.357-7.5-7.5-7.5H29.782c-4.143,0-7.5,3.358-7.5,7.5
		S25.64,217.231,29.782,217.231z"/>
</g>
</svg>