<svg viewBox="78 120 344 263" xmlns="http://www.w3.org/2000/svg" style="max-height: 500px" width="344" height="263">
<g strokeWidth="0.3" strokeOpacity="0.00" stroke="#000000" fillOpacity="0.0" fill="None"><path d="M 0.00 500.00 &#10;L 500.00 500.00&#10;L 500.00 0.00&#10;L 0.00 0.00&#10;L 0.00 500.00&#10;M 241.00 121.00 &#10;C 242.63 132.04 242.41 145.98 230.98 145.98 C 219.54 145.97 213.02 151.48 203.92 154.92 C 194.82 158.37 190.00 163.37 182.75 168.75 C 175.51 174.14 171.14 181.31 166.00 188.00&#10;C 158.87 183.59 151.29 179.27 144.00 176.00&#10;C 166.86 144.82 202.01 121.85 241.00 121.00&#10;M 356.00 176.00 &#10;C 348.03 178.14 341.40 185.41 333.00 187.00&#10;C 328.60 180.31 324.21 174.13 317.25 168.75 C 310.28 163.37 304.83 158.44 295.92 155.08 C 287.02 151.72 281.40 145.93 269.99 146.01 C 258.59 146.09 258.36 132.14 260.00 121.00&#10;C 298.47 122.19 333.49 144.91 356.00 176.00&#10;M 254.00 142.00 &#10;C 251.30 138.83 248.53 140.48 246.00 142.00&#10;C 246.64 137.52 243.10 120.83 251.03 122.03 C 258.95 123.22 254.02 137.91 254.00 142.00&#10;M 247.00 150.00 &#10;C 250.89 159.30 240.12 163.95 241.00 172.00 C 241.88 180.05 237.78 190.54 246.08 194.92 C 254.38 199.29 261.16 190.64 260.00 183.00 C 258.84 175.36 263.00 164.02 253.00 162.00&#10;C 253.00 158.00 253.00 154.00 253.00 150.00&#10;C 284.68 149.63 319.01 167.74 332.00 197.00&#10;C 325.75 204.46 316.56 196.98 310.31 201.31 C 304.05 205.63 294.37 206.78 292.22 215.22 C 290.07 223.67 303.15 230.31 309.22 224.22 C 315.30 218.14 327.01 218.32 325.00 207.00&#10;C 334.07 204.57 335.59 196.79 340.77 210.23 C 345.95 223.67 349.63 245.94 347.00 260.00 C 344.37 274.06 342.05 298.25 325.00 286.00&#10;C 326.54 273.07 315.55 276.93 308.77 269.23 C 301.99 261.53 289.31 272.07 292.78 279.22 C 296.25 286.38 306.81 291.32 312.23 292.77 C 317.65 294.22 334.26 290.94 331.67 300.67 C 329.08 310.40 321.72 312.32 316.25 319.25 C 310.78 326.18 303.92 327.65 296.77 332.77 C 289.63 337.89 280.59 339.03 271.99 341.99 C 263.39 344.96 247.31 346.45 253.00 331.00&#10;C 263.37 327.54 257.33 313.08 259.00 305.00 C 260.67 296.92 242.73 293.71 241.25 301.25 C 239.76 308.79 235.52 321.91 242.77 329.23 C 250.02 336.55 245.82 346.49 234.78 343.22 C 223.73 339.95 218.76 340.57 209.92 336.08 C 201.09 331.58 197.35 329.35 189.92 324.08 C 182.49 318.82 180.32 314.64 173.75 308.25 C 167.19 301.86 167.48 294.22 177.00 291.00&#10;C 185.85 297.09 212.27 285.43 206.69 272.31 C 201.12 259.18 173.43 273.93 175.00 286.00&#10;C 164.86 294.54 160.98 288.62 157.68 278.32 C 154.38 268.03 153.18 258.32 153.00 247.00 C 152.82 235.68 154.47 225.95 157.78 215.78 C 161.08 205.60 164.54 198.32 175.00 207.00&#10;C 172.65 218.21 184.04 217.28 189.70 223.30 C 195.36 229.33 208.54 226.46 207.98 216.98 C 207.41 207.49 197.29 206.70 190.92 202.08 C 184.56 197.45 174.12 204.23 168.00 197.00&#10;C 181.22 167.87 215.33 149.98 247.00 150.00&#10;M 254.00 170.00 &#10;C 253.91 174.81 259.17 187.79 250.97 188.97 C 242.77 190.16 246.89 175.21 246.00 170.00&#10;C 248.80 171.13 251.44 173.11 254.00 170.00&#10;M 161.00 191.00 &#10;C 159.41 193.22 155.09 194.59 158.00 198.00&#10;C 153.85 197.02 138.59 192.30 142.33 185.33 C 146.07 178.35 156.95 189.59 161.00 191.00&#10;M 342.00 198.00 &#10;C 345.48 194.27 339.29 192.81 339.00 190.00&#10;C 343.23 189.36 354.36 178.05 357.75 185.25 C 361.14 192.45 346.09 196.42 342.00 198.00&#10;M 364.00 191.00 &#10;C 380.49 224.80 382.19 268.58 364.00 302.00&#10;C 359.00 295.81 350.51 293.52 344.00 289.00&#10;C 357.07 262.51 354.90 229.70 344.00 203.00&#10;C 351.06 200.16 358.82 196.43 364.00 191.00&#10;M 156.00 204.00 &#10;C 143.63 230.69 144.87 263.14 156.00 290.00&#10;C 148.47 292.34 142.26 298.16 135.00 301.00&#10;C 119.06 267.35 119.61 225.71 135.00 192.00&#10;C 141.95 195.75 148.93 200.12 156.00 204.00&#10;M 182.00 213.00 &#10;C 184.12 211.50 187.63 208.97 185.00 206.00&#10;C 189.34 206.59 204.10 211.84 200.67 218.67 C 197.24 225.50 186.06 214.39 182.00 213.00&#10;M 315.00 206.00 &#10;C 311.40 210.03 317.70 210.28 318.00 213.00&#10;C 313.19 213.93 304.19 225.52 299.75 219.24 C 295.31 212.97 310.29 206.08 315.00 206.00&#10;M 185.00 288.00 &#10;C 187.94 283.66 183.37 282.64 182.00 280.00&#10;C 186.24 279.52 197.14 267.22 200.75 274.25 C 204.35 281.28 188.97 286.18 185.00 288.00&#10;M 318.00 280.00 &#10;C 316.41 282.22 312.09 283.59 315.00 287.00&#10;C 310.57 286.23 295.21 281.40 299.33 274.33 C 303.45 267.26 313.48 279.00 318.00 280.00&#10;M 158.00 295.00 &#10;C 154.52 298.73 160.71 300.19 161.00 303.00&#10;C 156.98 303.68 145.63 314.95 142.25 307.75 C 138.87 300.55 154.08 296.86 158.00 295.00&#10;M 339.00 303.00 &#10;C 339.42 300.29 345.37 298.69 342.00 295.00&#10;C 345.74 297.05 360.64 299.37 358.00 307.00 C 355.36 314.63 343.36 303.60 339.00 303.00&#10;M 254.00 323.00 &#10;C 251.20 321.87 248.56 319.89 246.00 323.00&#10;C 245.95 318.31 241.01 305.05 249.03 304.03 C 257.04 303.00 253.19 317.87 254.00 323.00&#10;M 166.00 306.00 &#10;C 169.84 312.29 174.78 317.47 180.25 322.75 C 185.71 328.03 191.51 331.83 198.08 335.92 C 204.65 340.01 212.49 342.75 219.68 345.32 C 226.87 347.89 240.83 346.67 240.00 356.00 C 239.17 365.33 238.47 376.98 250.00 377.00 C 261.53 377.01 258.97 363.58 259.00 355.00 C 259.03 346.42 273.42 348.20 280.22 345.22 C 287.02 342.25 295.79 340.37 302.08 336.08 C 308.37 331.78 314.20 327.91 319.75 322.75 C 325.31 317.59 330.31 312.29 334.00 306.00&#10;C 341.57 308.00 348.54 315.84 356.00 316.00&#10;C 341.95 339.41 317.93 358.74 292.00 366.00&#10;C 302.36 368.10 314.33 367.71 325.22 368.78 C 336.11 369.85 348.46 369.23 359.00 371.00 C 369.55 372.77 381.92 371.74 392.00 374.00 C 402.08 376.26 415.58 373.76 421.00 381.00&#10;C 307.33 381.00 193.67 381.00 80.00 381.00&#10;C 85.24 373.77 97.98 376.11 108.01 374.01 C 118.03 371.91 130.43 372.59 141.00 371.00 C 151.57 369.41 163.80 369.73 174.67 368.67 C 185.54 367.61 197.77 368.21 208.00 366.00&#10;C 182.03 358.86 158.10 339.28 144.00 316.00&#10;C 152.37 315.92 158.36 308.37 166.00 306.00&#10;M 254.00 351.00 &#10;C 253.33 355.74 256.94 371.83 248.97 370.97 C 241.01 370.12 246.01 355.22 246.00 351.00&#10;C 248.29 353.62 251.70 353.38 254.00 351.00 Z"/>
</g>
<g strokeWidth="0.3" strokeOpacity="0.95" stroke="#4A4A4A" fillOpacity="0.0" fill="None"><path d="M 241.00 121.00 &#10;C 202.01 121.85 166.86 144.82 144.00 176.00&#10;C 151.29 179.27 158.87 183.59 166.00 188.00&#10;C 171.14 181.31 175.51 174.14 182.75 168.75 C 190.00 163.37 194.82 158.37 203.92 154.92 C 213.02 151.48 219.54 145.97 230.98 145.98 C 242.41 145.98 242.63 132.04 241.00 121.00 Z"/>
</g>
<g strokeWidth="0.3" strokeOpacity="0.95" stroke="#4A4A4A" fillOpacity="0.0" fill="None"><path d="M 356.00 176.00 &#10;C 333.49 144.91 298.47 122.19 260.00 121.00&#10;C 258.36 132.14 258.59 146.09 269.99 146.01 C 281.40 145.93 287.02 151.72 295.92 155.08 C 304.83 158.44 310.28 163.37 317.25 168.75 C 324.21 174.13 328.60 180.31 333.00 187.00&#10;C 341.40 185.41 348.03 178.14 356.00 176.00 Z"/>
</g>
<g strokeWidth="0.3" strokeOpacity="0.82" stroke="#454545" fillOpacity="0.0" fill="None"><path d="M 254.00 142.00 &#10;C 254.02 137.91 258.95 123.22 251.03 122.03 C 243.10 120.83 246.64 137.52 246.00 142.00&#10;C 248.53 140.48 251.30 138.83 254.00 142.00 Z"/>
</g>
<g strokeWidth="0.3" strokeOpacity="0.92" stroke="#494949" fillOpacity="0.0" fill="None"><path d="M 247.00 150.00 &#10;C 215.33 149.98 181.22 167.87 168.00 197.00&#10;C 174.12 204.23 184.56 197.45 190.92 202.08 C 197.29 206.70 207.41 207.49 207.98 216.98 C 208.54 226.46 195.36 229.33 189.70 223.30 C 184.04 217.28 172.65 218.21 175.00 207.00&#10;C 164.54 198.32 161.08 205.60 157.78 215.78 C 154.47 225.95 152.82 235.68 153.00 247.00 C 153.18 258.32 154.38 268.03 157.68 278.32 C 160.98 288.62 164.86 294.54 175.00 286.00&#10;C 173.43 273.93 201.12 259.18 206.69 272.31 C 212.27 285.43 185.85 297.09 177.00 291.00&#10;C 167.48 294.22 167.19 301.86 173.75 308.25 C 180.32 314.64 182.49 318.82 189.92 324.08 C 197.35 329.35 201.09 331.58 209.92 336.08 C 218.76 340.57 223.73 339.95 234.78 343.22 C 245.82 346.49 250.02 336.55 242.77 329.23 C 235.52 321.91 239.76 308.79 241.25 301.25 C 242.73 293.71 260.67 296.92 259.00 305.00 C 257.33 313.08 263.37 327.54 253.00 331.00&#10;C 247.31 346.45 263.39 344.96 271.99 341.99 C 280.59 339.03 289.63 337.89 296.77 332.77 C 303.92 327.65 310.78 326.18 316.25 319.25 C 321.72 312.32 329.08 310.40 331.67 300.67 C 334.26 290.94 317.65 294.22 312.23 292.77 C 306.81 291.32 296.25 286.38 292.78 279.22 C 289.31 272.07 301.99 261.53 308.77 269.23 C 315.55 276.93 326.54 273.07 325.00 286.00&#10;C 342.05 298.25 344.37 274.06 347.00 260.00 C 349.63 245.94 345.95 223.67 340.77 210.23 C 335.59 196.79 334.07 204.57 325.00 207.00&#10;C 327.01 218.32 315.30 218.14 309.22 224.22 C 303.15 230.31 290.07 223.67 292.22 215.22 C 294.37 206.78 304.05 205.63 310.31 201.31 C 316.56 196.98 325.75 204.46 332.00 197.00&#10;C 319.01 167.74 284.68 149.63 253.00 150.00&#10;C 253.00 154.00 253.00 158.00 253.00 162.00&#10;C 263.00 164.02 258.84 175.36 260.00 183.00 C 261.16 190.64 254.38 199.29 246.08 194.92 C 237.78 190.54 241.88 180.05 241.00 172.00 C 240.12 163.95 250.89 159.30 247.00 150.00&#10;M 220.00 164.00 &#10;C 231.19 164.28 232.59 181.17 235.78 189.22 C 238.97 197.28 241.42 216.67 230.97 218.97 C 220.53 221.28 213.18 210.38 206.25 204.75 C 199.33 199.12 189.40 187.92 193.78 179.78 C 198.15 171.64 210.90 163.77 220.00 164.00&#10;M 282.00 164.00 &#10;C 290.49 164.27 302.80 172.19 306.77 180.23 C 310.74 188.27 299.82 200.16 293.25 205.25 C 286.67 210.34 277.91 223.66 267.98 219.02 C 258.04 214.39 262.45 195.50 264.99 186.99 C 267.54 178.48 270.34 163.63 282.00 164.00&#10;M 253.00 219.00 &#10;C 256.14 220.98 252.02 227.49 248.33 224.67 C 244.64 221.85 249.37 216.71 253.00 219.00&#10;M 178.00 227.00 &#10;C 188.68 228.53 196.31 232.48 207.08 235.92 C 217.84 239.37 220.37 251.92 208.92 256.92 C 197.48 261.93 191.42 262.98 179.00 266.00 C 166.58 269.01 159.85 260.26 160.00 248.00 C 160.16 235.73 163.90 224.99 178.00 227.00&#10;M 284.00 241.00 &#10;C 297.04 232.52 303.15 232.41 319.01 228.01 C 334.87 223.61 342.78 237.63 340.00 254.00 C 337.22 270.37 320.07 267.92 308.33 263.67 C 296.59 259.43 279.74 256.63 284.00 241.00&#10;M 230.00 231.00 &#10;C 233.65 232.30 231.46 239.45 227.32 237.66 C 223.18 235.87 225.95 229.56 230.00 231.00&#10;M 274.00 231.00 &#10;C 277.83 233.35 273.45 240.23 269.78 237.22 C 266.11 234.21 270.88 229.08 274.00 231.00&#10;M 253.00 235.00 &#10;C 267.40 237.45 262.75 262.56 248.00 259.00 C 233.25 255.44 236.93 232.26 253.00 235.00&#10;M 230.00 256.00 &#10;C 233.65 257.30 231.46 264.45 227.32 262.66 C 223.18 260.87 225.95 254.56 230.00 256.00&#10;M 274.00 256.00 &#10;C 277.83 258.35 273.45 265.23 269.78 262.22 C 266.11 259.21 270.88 254.08 274.00 256.00&#10;M 253.00 269.00 &#10;C 255.85 270.85 252.14 277.57 248.33 274.67 C 244.52 271.77 249.50 266.73 253.00 269.00&#10;M 231.00 274.00 &#10;C 243.20 276.39 237.97 296.09 236.01 304.01 C 234.05 311.92 230.25 328.76 220.33 329.33 C 210.41 329.89 200.38 323.69 194.25 315.75 C 188.12 307.81 198.97 295.56 205.25 290.25 C 211.53 284.94 221.77 272.19 231.00 274.00&#10;M 274.00 274.00 &#10;C 282.69 275.45 288.93 286.69 296.25 291.75 C 303.56 296.82 311.41 310.41 304.25 317.25 C 297.08 324.08 287.15 332.45 276.99 329.01 C 266.84 325.57 267.46 309.27 264.01 300.99 C 260.56 292.72 259.09 271.51 274.00 274.00 Z"/>
</g>
<g strokeWidth="0.3" strokeOpacity="0.00" stroke="#000000" fillOpacity="0.0" fill="None"><path d="M 220.00 164.00 &#10;C 210.90 163.77 198.15 171.64 193.78 179.78 C 189.40 187.92 199.33 199.12 206.25 204.75 C 213.18 210.38 220.53 221.28 230.97 218.97 C 241.42 216.67 238.97 197.28 235.78 189.22 C 232.59 181.17 231.19 164.28 220.00 164.00 Z"/>
</g>
<g strokeWidth="0.3" strokeOpacity="0.00" stroke="#000000" fillOpacity="0.0" fill="None"><path d="M 282.00 164.00 &#10;C 270.34 163.63 267.54 178.48 264.99 186.99 C 262.45 195.50 258.04 214.39 267.98 219.02 C 277.91 223.66 286.67 210.34 293.25 205.25 C 299.82 200.16 310.74 188.27 306.77 180.23 C 302.80 172.19 290.49 164.27 282.00 164.00 Z"/>
</g>
<g strokeWidth="0.3" strokeOpacity="0.84" stroke="#464646" fillOpacity="0.0" fill="None"><path d="M 254.00 170.00 &#10;C 251.44 173.11 248.80 171.13 246.00 170.00&#10;C 246.89 175.21 242.77 190.16 250.97 188.97 C 259.17 187.79 253.91 174.81 254.00 170.00 Z"/>
</g>
<g strokeWidth="0.3" strokeOpacity="0.83" stroke="#464646" fillOpacity="0.0" fill="None"><path d="M 161.00 191.00 &#10;C 156.95 189.59 146.07 178.35 142.33 185.33 C 138.59 192.30 153.85 197.02 158.00 198.00&#10;C 155.09 194.59 159.41 193.22 161.00 191.00 Z"/>
</g>
<g strokeWidth="0.3" strokeOpacity="0.82" stroke="#464646" fillOpacity="0.0" fill="None"><path d="M 342.00 198.00 &#10;C 346.09 196.42 361.14 192.45 357.75 185.25 C 354.36 178.05 343.23 189.36 339.00 190.00&#10;C 339.29 192.81 345.48 194.27 342.00 198.00 Z"/>
</g>
<g strokeWidth="0.3" strokeOpacity="0.95" stroke="#4A4A4A" fillOpacity="0.0" fill="None"><path d="M 364.00 191.00 &#10;C 358.82 196.43 351.06 200.16 344.00 203.00&#10;C 354.90 229.70 357.07 262.51 344.00 289.00&#10;C 350.51 293.52 359.00 295.81 364.00 302.00&#10;C 382.19 268.58 380.49 224.80 364.00 191.00 Z"/>
</g>
<g strokeWidth="0.3" strokeOpacity="0.95" stroke="#4A4A4A" fillOpacity="0.0" fill="None"><path d="M 156.00 204.00 &#10;C 148.93 200.12 141.95 195.75 135.00 192.00&#10;C 119.61 225.71 119.06 267.35 135.00 301.00&#10;C 142.26 298.16 148.47 292.34 156.00 290.00&#10;C 144.87 263.14 143.63 230.69 156.00 204.00 Z"/>
</g>
<g strokeWidth="0.3" strokeOpacity="0.83" stroke="#444444" fillOpacity="0.0" fill="None"><path d="M 182.00 213.00 &#10;C 186.06 214.39 197.24 225.50 200.67 218.67 C 204.10 211.84 189.34 206.59 185.00 206.00&#10;C 187.63 208.97 184.12 211.50 182.00 213.00 Z"/>
</g>
<g strokeWidth="0.3" strokeOpacity="0.82" stroke="#444444" fillOpacity="0.0" fill="None"><path d="M 315.00 206.00 &#10;C 310.29 206.08 295.31 212.97 299.75 219.24 C 304.19 225.52 313.19 213.93 318.00 213.00&#10;C 317.70 210.28 311.40 210.03 315.00 206.00 Z"/>
</g>
<g strokeWidth="0.3" strokeOpacity="0.00" stroke="#000000" fillOpacity="0.0" fill="None"><path d="M 253.00 219.00 &#10;C 249.37 216.71 244.64 221.85 248.33 224.67 C 252.02 227.49 256.14 220.98 253.00 219.00 Z"/>
</g>
<g strokeWidth="0.3" strokeOpacity="0.00" stroke="#000000" fillOpacity="0.0" fill="None"><path d="M 178.00 227.00 &#10;C 163.90 224.99 160.16 235.73 160.00 248.00 C 159.85 260.26 166.58 269.01 179.00 266.00 C 191.42 262.98 197.48 261.93 208.92 256.92 C 220.37 251.92 217.84 239.37 207.08 235.92 C 196.31 232.48 188.68 228.53 178.00 227.00 Z"/>
</g>
<g strokeWidth="0.3" strokeOpacity="0.00" stroke="#000000" fillOpacity="0.0" fill="None"><path d="M 284.00 241.00 &#10;C 279.74 256.63 296.59 259.43 308.33 263.67 C 320.07 267.92 337.22 270.37 340.00 254.00 C 342.78 237.63 334.87 223.61 319.01 228.01 C 303.15 232.41 297.04 232.52 284.00 241.00 Z"/>
</g>
<g strokeWidth="0.3" strokeOpacity="0.00" stroke="#000000" fillOpacity="0.0" fill="None"><path d="M 230.00 231.00 &#10;C 225.95 229.56 223.18 235.87 227.32 237.66 C 231.46 239.45 233.65 232.30 230.00 231.00 Z"/>
</g>
<g strokeWidth="0.3" strokeOpacity="0.00" stroke="#000000" fillOpacity="0.0" fill="None"><path d="M 274.00 231.00 &#10;C 270.88 229.08 266.11 234.21 269.78 237.22 C 273.45 240.23 277.83 233.35 274.00 231.00 Z"/>
</g>
<g strokeWidth="0.3" strokeOpacity="0.00" stroke="#000000" fillOpacity="0.0" fill="None"><path d="M 253.00 235.00 &#10;C 236.93 232.26 233.25 255.44 248.00 259.00 C 262.75 262.56 267.40 237.45 253.00 235.00 Z"/>
</g>
<g strokeWidth="0.3" strokeOpacity="0.00" stroke="#000000" fillOpacity="0.0" fill="None"><path d="M 230.00 256.00 &#10;C 225.95 254.56 223.18 260.87 227.32 262.66 C 231.46 264.45 233.65 257.30 230.00 256.00 Z"/>
</g>
<g strokeWidth="0.3" strokeOpacity="0.00" stroke="#000000" fillOpacity="0.0" fill="None"><path d="M 274.00 256.00 &#10;C 270.88 254.08 266.11 259.21 269.78 262.22 C 273.45 265.23 277.83 258.35 274.00 256.00 Z"/>
</g>
<g strokeWidth="0.3" strokeOpacity="0.00" stroke="#000000" fillOpacity="0.0" fill="None"><path d="M 253.00 269.00 &#10;C 249.50 266.73 244.52 271.77 248.33 274.67 C 252.14 277.57 255.85 270.85 253.00 269.00 Z"/>
</g>
<g strokeWidth="0.3" strokeOpacity="0.82" stroke="#444444" fillOpacity="0.0" fill="None"><path d="M 185.00 288.00 &#10;C 188.97 286.18 204.35 281.28 200.75 274.25 C 197.14 267.22 186.24 279.52 182.00 280.00&#10;C 183.37 282.64 187.94 283.66 185.00 288.00 Z"/>
</g>
<g strokeWidth="0.3" strokeOpacity="0.82" stroke="#454545" fillOpacity="0.0" fill="None"><path d="M 318.00 280.00 &#10;C 313.48 279.00 303.45 267.26 299.33 274.33 C 295.21 281.40 310.57 286.23 315.00 287.00&#10;C 312.09 283.59 316.41 282.22 318.00 280.00 Z"/>
</g>
<g strokeWidth="0.3" strokeOpacity="0.00" stroke="#000000" fillOpacity="0.0" fill="None"><path d="M 231.00 274.00 &#10;C 221.77 272.19 211.53 284.94 205.25 290.25 C 198.97 295.56 188.12 307.81 194.25 315.75 C 200.38 323.69 210.41 329.89 220.33 329.33 C 230.25 328.76 234.05 311.92 236.01 304.01 C 237.97 296.09 243.20 276.39 231.00 274.00 Z"/>
</g>
<g strokeWidth="0.3" strokeOpacity="0.00" stroke="#000000" fillOpacity="0.0" fill="None"><path d="M 274.00 274.00 &#10;C 259.09 271.51 260.56 292.72 264.01 300.99 C 267.46 309.27 266.84 325.57 276.99 329.01 C 287.15 332.45 297.08 324.08 304.25 317.25 C 311.41 310.41 303.56 296.82 296.25 291.75 C 288.93 286.69 282.69 275.45 274.00 274.00 Z"/>
</g>
<g strokeWidth="0.3" strokeOpacity="0.83" stroke="#454545" fillOpacity="0.0" fill="None"><path d="M 158.00 295.00 &#10;C 154.08 296.86 138.87 300.55 142.25 307.75 C 145.63 314.95 156.98 303.68 161.00 303.00&#10;C 160.71 300.19 154.52 298.73 158.00 295.00 Z"/>
</g>
<g strokeWidth="0.3" strokeOpacity="0.83" stroke="#454545" fillOpacity="0.0" fill="None"><path d="M 339.00 303.00 &#10;C 343.36 303.60 355.36 314.63 358.00 307.00 C 360.64 299.37 345.74 297.05 342.00 295.00&#10;C 345.37 298.69 339.42 300.29 339.00 303.00 Z"/>
</g>
<g strokeWidth="0.3" strokeOpacity="0.84" stroke="#454545" fillOpacity="0.0" fill="None"><path d="M 254.00 323.00 &#10;C 253.19 317.87 257.04 303.00 249.03 304.03 C 241.01 305.05 245.95 318.31 246.00 323.00&#10;C 248.56 319.89 251.20 321.87 254.00 323.00 Z"/>
</g>
<g strokeWidth="0.3" strokeOpacity="0.92" stroke="#494949" fillOpacity="0.0" fill="None"><path d="M 166.00 306.00 &#10;C 158.36 308.37 152.37 315.92 144.00 316.00&#10;C 158.10 339.28 182.03 358.86 208.00 366.00&#10;C 197.77 368.21 185.54 367.61 174.67 368.67 C 163.80 369.73 151.57 369.41 141.00 371.00 C 130.43 372.59 118.03 371.91 108.01 374.01 C 97.98 376.11 85.24 373.77 80.00 381.00&#10;C 193.67 381.00 307.33 381.00 421.00 381.00&#10;C 415.58 373.76 402.08 376.26 392.00 374.00 C 381.92 371.74 369.55 372.77 359.00 371.00 C 348.46 369.23 336.11 369.85 325.22 368.78 C 314.33 367.71 302.36 368.10 292.00 366.00&#10;C 317.93 358.74 341.95 339.41 356.00 316.00&#10;C 348.54 315.84 341.57 308.00 334.00 306.00&#10;C 330.31 312.29 325.31 317.59 319.75 322.75 C 314.20 327.91 308.37 331.78 302.08 336.08 C 295.79 340.37 287.02 342.25 280.22 345.22 C 273.42 348.20 259.03 346.42 259.00 355.00 C 258.97 363.58 261.53 377.01 250.00 377.00 C 238.47 376.98 239.17 365.33 240.00 356.00 C 240.83 346.67 226.87 347.89 219.68 345.32 C 212.49 342.75 204.65 340.01 198.08 335.92 C 191.51 331.83 185.71 328.03 180.25 322.75 C 174.78 317.47 169.84 312.29 166.00 306.00 Z"/>
</g>
<g strokeWidth="0.3" strokeOpacity="0.82" stroke="#454545" fillOpacity="0.0" fill="None"><path d="M 254.00 351.00 &#10;C 251.70 353.38 248.29 353.62 246.00 351.00&#10;C 246.01 355.22 241.01 370.12 248.97 370.97 C 256.94 371.83 253.33 355.74 254.00 351.00 Z"/>
</g>
<g stroke="None" fillOpacity="0.00" fill="#000000">
<path d="M 0.00 500.00 &#10;L 500.00 500.00&#10;L 500.00 0.00&#10;L 0.00 0.00&#10;L 0.00 500.00&#10;M 241.00 121.00 &#10;C 242.63 132.04 242.41 145.98 230.98 145.98 C 219.54 145.97 213.02 151.48 203.92 154.92 C 194.82 158.37 190.00 163.37 182.75 168.75 C 175.51 174.14 171.14 181.31 166.00 188.00&#10;C 158.87 183.59 151.29 179.27 144.00 176.00&#10;C 166.86 144.82 202.01 121.85 241.00 121.00&#10;M 356.00 176.00 &#10;C 348.03 178.14 341.40 185.41 333.00 187.00&#10;C 328.60 180.31 324.21 174.13 317.25 168.75 C 310.28 163.37 304.83 158.44 295.92 155.08 C 287.02 151.72 281.40 145.93 269.99 146.01 C 258.59 146.09 258.36 132.14 260.00 121.00&#10;C 298.47 122.19 333.49 144.91 356.00 176.00&#10;M 254.00 142.00 &#10;C 251.30 138.83 248.53 140.48 246.00 142.00&#10;C 246.64 137.52 243.10 120.83 251.03 122.03 C 258.95 123.22 254.02 137.91 254.00 142.00&#10;M 247.00 150.00 &#10;C 250.89 159.30 240.12 163.95 241.00 172.00 C 241.88 180.05 237.78 190.54 246.08 194.92 C 254.38 199.29 261.16 190.64 260.00 183.00 C 258.84 175.36 263.00 164.02 253.00 162.00&#10;C 253.00 158.00 253.00 154.00 253.00 150.00&#10;C 284.68 149.63 319.01 167.74 332.00 197.00&#10;C 325.75 204.46 316.56 196.98 310.31 201.31 C 304.05 205.63 294.37 206.78 292.22 215.22 C 290.07 223.67 303.15 230.31 309.22 224.22 C 315.30 218.14 327.01 218.32 325.00 207.00&#10;C 334.07 204.57 335.59 196.79 340.77 210.23 C 345.95 223.67 349.63 245.94 347.00 260.00 C 344.37 274.06 342.05 298.25 325.00 286.00&#10;C 326.54 273.07 315.55 276.93 308.77 269.23 C 301.99 261.53 289.31 272.07 292.78 279.22 C 296.25 286.38 306.81 291.32 312.23 292.77 C 317.65 294.22 334.26 290.94 331.67 300.67 C 329.08 310.40 321.72 312.32 316.25 319.25 C 310.78 326.18 303.92 327.65 296.77 332.77 C 289.63 337.89 280.59 339.03 271.99 341.99 C 263.39 344.96 247.31 346.45 253.00 331.00&#10;C 263.37 327.54 257.33 313.08 259.00 305.00 C 260.67 296.92 242.73 293.71 241.25 301.25 C 239.76 308.79 235.52 321.91 242.77 329.23 C 250.02 336.55 245.82 346.49 234.78 343.22 C 223.73 339.95 218.76 340.57 209.92 336.08 C 201.09 331.58 197.35 329.35 189.92 324.08 C 182.49 318.82 180.32 314.64 173.75 308.25 C 167.19 301.86 167.48 294.22 177.00 291.00&#10;C 185.85 297.09 212.27 285.43 206.69 272.31 C 201.12 259.18 173.43 273.93 175.00 286.00&#10;C 164.86 294.54 160.98 288.62 157.68 278.32 C 154.38 268.03 153.18 258.32 153.00 247.00 C 152.82 235.68 154.47 225.95 157.78 215.78 C 161.08 205.60 164.54 198.32 175.00 207.00&#10;C 172.65 218.21 184.04 217.28 189.70 223.30 C 195.36 229.33 208.54 226.46 207.98 216.98 C 207.41 207.49 197.29 206.70 190.92 202.08 C 184.56 197.45 174.12 204.23 168.00 197.00&#10;C 181.22 167.87 215.33 149.98 247.00 150.00&#10;M 254.00 170.00 &#10;C 253.91 174.81 259.17 187.79 250.97 188.97 C 242.77 190.16 246.89 175.21 246.00 170.00&#10;C 248.80 171.13 251.44 173.11 254.00 170.00&#10;M 161.00 191.00 &#10;C 159.41 193.22 155.09 194.59 158.00 198.00&#10;C 153.85 197.02 138.59 192.30 142.33 185.33 C 146.07 178.35 156.95 189.59 161.00 191.00&#10;M 342.00 198.00 &#10;C 345.48 194.27 339.29 192.81 339.00 190.00&#10;C 343.23 189.36 354.36 178.05 357.75 185.25 C 361.14 192.45 346.09 196.42 342.00 198.00&#10;M 364.00 191.00 &#10;C 380.49 224.80 382.19 268.58 364.00 302.00&#10;C 359.00 295.81 350.51 293.52 344.00 289.00&#10;C 357.07 262.51 354.90 229.70 344.00 203.00&#10;C 351.06 200.16 358.82 196.43 364.00 191.00&#10;M 156.00 204.00 &#10;C 143.63 230.69 144.87 263.14 156.00 290.00&#10;C 148.47 292.34 142.26 298.16 135.00 301.00&#10;C 119.06 267.35 119.61 225.71 135.00 192.00&#10;C 141.95 195.75 148.93 200.12 156.00 204.00&#10;M 182.00 213.00 &#10;C 184.12 211.50 187.63 208.97 185.00 206.00&#10;C 189.34 206.59 204.10 211.84 200.67 218.67 C 197.24 225.50 186.06 214.39 182.00 213.00&#10;M 315.00 206.00 &#10;C 311.40 210.03 317.70 210.28 318.00 213.00&#10;C 313.19 213.93 304.19 225.52 299.75 219.24 C 295.31 212.97 310.29 206.08 315.00 206.00&#10;M 185.00 288.00 &#10;C 187.94 283.66 183.37 282.64 182.00 280.00&#10;C 186.24 279.52 197.14 267.22 200.75 274.25 C 204.35 281.28 188.97 286.18 185.00 288.00&#10;M 318.00 280.00 &#10;C 316.41 282.22 312.09 283.59 315.00 287.00&#10;C 310.57 286.23 295.21 281.40 299.33 274.33 C 303.45 267.26 313.48 279.00 318.00 280.00&#10;M 158.00 295.00 &#10;C 154.52 298.73 160.71 300.19 161.00 303.00&#10;C 156.98 303.68 145.63 314.95 142.25 307.75 C 138.87 300.55 154.08 296.86 158.00 295.00&#10;M 339.00 303.00 &#10;C 339.42 300.29 345.37 298.69 342.00 295.00&#10;C 345.74 297.05 360.64 299.37 358.00 307.00 C 355.36 314.63 343.36 303.60 339.00 303.00&#10;M 254.00 323.00 &#10;C 251.20 321.87 248.56 319.89 246.00 323.00&#10;C 245.95 318.31 241.01 305.05 249.03 304.03 C 257.04 303.00 253.19 317.87 254.00 323.00&#10;M 166.00 306.00 &#10;C 169.84 312.29 174.78 317.47 180.25 322.75 C 185.71 328.03 191.51 331.83 198.08 335.92 C 204.65 340.01 212.49 342.75 219.68 345.32 C 226.87 347.89 240.83 346.67 240.00 356.00 C 239.17 365.33 238.47 376.98 250.00 377.00 C 261.53 377.01 258.97 363.58 259.00 355.00 C 259.03 346.42 273.42 348.20 280.22 345.22 C 287.02 342.25 295.79 340.37 302.08 336.08 C 308.37 331.78 314.20 327.91 319.75 322.75 C 325.31 317.59 330.31 312.29 334.00 306.00&#10;C 341.57 308.00 348.54 315.84 356.00 316.00&#10;C 341.95 339.41 317.93 358.74 292.00 366.00&#10;C 302.36 368.10 314.33 367.71 325.22 368.78 C 336.11 369.85 348.46 369.23 359.00 371.00 C 369.55 372.77 381.92 371.74 392.00 374.00 C 402.08 376.26 415.58 373.76 421.00 381.00&#10;C 307.33 381.00 193.67 381.00 80.00 381.00&#10;C 85.24 373.77 97.98 376.11 108.01 374.01 C 118.03 371.91 130.43 372.59 141.00 371.00 C 151.57 369.41 163.80 369.73 174.67 368.67 C 185.54 367.61 197.77 368.21 208.00 366.00&#10;C 182.03 358.86 158.10 339.28 144.00 316.00&#10;C 152.37 315.92 158.36 308.37 166.00 306.00&#10;M 254.00 351.00 &#10;C 253.33 355.74 256.94 371.83 248.97 370.97 C 241.01 370.12 246.01 355.22 246.00 351.00&#10;C 248.29 353.62 251.70 353.38 254.00 351.00 Z"/>
</g>
<g stroke="None" fillOpacity="0.95" fill="#4A4A4A">
<path d="M 241.00 121.00 &#10;C 202.01 121.85 166.86 144.82 144.00 176.00&#10;C 151.29 179.27 158.87 183.59 166.00 188.00&#10;C 171.14 181.31 175.51 174.14 182.75 168.75 C 190.00 163.37 194.82 158.37 203.92 154.92 C 213.02 151.48 219.54 145.97 230.98 145.98 C 242.41 145.98 242.63 132.04 241.00 121.00 Z"/>
</g>
<g stroke="None" fillOpacity="0.95" fill="#4A4A4A">
<path d="M 356.00 176.00 &#10;C 333.49 144.91 298.47 122.19 260.00 121.00&#10;C 258.36 132.14 258.59 146.09 269.99 146.01 C 281.40 145.93 287.02 151.72 295.92 155.08 C 304.83 158.44 310.28 163.37 317.25 168.75 C 324.21 174.13 328.60 180.31 333.00 187.00&#10;C 341.40 185.41 348.03 178.14 356.00 176.00 Z"/>
</g>
<g stroke="None" fillOpacity="0.82" fill="#454545">
<path d="M 254.00 142.00 &#10;C 254.02 137.91 258.95 123.22 251.03 122.03 C 243.10 120.83 246.64 137.52 246.00 142.00&#10;C 248.53 140.48 251.30 138.83 254.00 142.00 Z"/>
</g>
<g stroke="None" fillOpacity="0.92" fill="#494949">
<path d="M 247.00 150.00 &#10;C 215.33 149.98 181.22 167.87 168.00 197.00&#10;C 174.12 204.23 184.56 197.45 190.92 202.08 C 197.29 206.70 207.41 207.49 207.98 216.98 C 208.54 226.46 195.36 229.33 189.70 223.30 C 184.04 217.28 172.65 218.21 175.00 207.00&#10;C 164.54 198.32 161.08 205.60 157.78 215.78 C 154.47 225.95 152.82 235.68 153.00 247.00 C 153.18 258.32 154.38 268.03 157.68 278.32 C 160.98 288.62 164.86 294.54 175.00 286.00&#10;C 173.43 273.93 201.12 259.18 206.69 272.31 C 212.27 285.43 185.85 297.09 177.00 291.00&#10;C 167.48 294.22 167.19 301.86 173.75 308.25 C 180.32 314.64 182.49 318.82 189.92 324.08 C 197.35 329.35 201.09 331.58 209.92 336.08 C 218.76 340.57 223.73 339.95 234.78 343.22 C 245.82 346.49 250.02 336.55 242.77 329.23 C 235.52 321.91 239.76 308.79 241.25 301.25 C 242.73 293.71 260.67 296.92 259.00 305.00 C 257.33 313.08 263.37 327.54 253.00 331.00&#10;C 247.31 346.45 263.39 344.96 271.99 341.99 C 280.59 339.03 289.63 337.89 296.77 332.77 C 303.92 327.65 310.78 326.18 316.25 319.25 C 321.72 312.32 329.08 310.40 331.67 300.67 C 334.26 290.94 317.65 294.22 312.23 292.77 C 306.81 291.32 296.25 286.38 292.78 279.22 C 289.31 272.07 301.99 261.53 308.77 269.23 C 315.55 276.93 326.54 273.07 325.00 286.00&#10;C 342.05 298.25 344.37 274.06 347.00 260.00 C 349.63 245.94 345.95 223.67 340.77 210.23 C 335.59 196.79 334.07 204.57 325.00 207.00&#10;C 327.01 218.32 315.30 218.14 309.22 224.22 C 303.15 230.31 290.07 223.67 292.22 215.22 C 294.37 206.78 304.05 205.63 310.31 201.31 C 316.56 196.98 325.75 204.46 332.00 197.00&#10;C 319.01 167.74 284.68 149.63 253.00 150.00&#10;C 253.00 154.00 253.00 158.00 253.00 162.00&#10;C 263.00 164.02 258.84 175.36 260.00 183.00 C 261.16 190.64 254.38 199.29 246.08 194.92 C 237.78 190.54 241.88 180.05 241.00 172.00 C 240.12 163.95 250.89 159.30 247.00 150.00&#10;M 220.00 164.00 &#10;C 231.19 164.28 232.59 181.17 235.78 189.22 C 238.97 197.28 241.42 216.67 230.97 218.97 C 220.53 221.28 213.18 210.38 206.25 204.75 C 199.33 199.12 189.40 187.92 193.78 179.78 C 198.15 171.64 210.90 163.77 220.00 164.00&#10;M 282.00 164.00 &#10;C 290.49 164.27 302.80 172.19 306.77 180.23 C 310.74 188.27 299.82 200.16 293.25 205.25 C 286.67 210.34 277.91 223.66 267.98 219.02 C 258.04 214.39 262.45 195.50 264.99 186.99 C 267.54 178.48 270.34 163.63 282.00 164.00&#10;M 253.00 219.00 &#10;C 256.14 220.98 252.02 227.49 248.33 224.67 C 244.64 221.85 249.37 216.71 253.00 219.00&#10;M 178.00 227.00 &#10;C 188.68 228.53 196.31 232.48 207.08 235.92 C 217.84 239.37 220.37 251.92 208.92 256.92 C 197.48 261.93 191.42 262.98 179.00 266.00 C 166.58 269.01 159.85 260.26 160.00 248.00 C 160.16 235.73 163.90 224.99 178.00 227.00&#10;M 284.00 241.00 &#10;C 297.04 232.52 303.15 232.41 319.01 228.01 C 334.87 223.61 342.78 237.63 340.00 254.00 C 337.22 270.37 320.07 267.92 308.33 263.67 C 296.59 259.43 279.74 256.63 284.00 241.00&#10;M 230.00 231.00 &#10;C 233.65 232.30 231.46 239.45 227.32 237.66 C 223.18 235.87 225.95 229.56 230.00 231.00&#10;M 274.00 231.00 &#10;C 277.83 233.35 273.45 240.23 269.78 237.22 C 266.11 234.21 270.88 229.08 274.00 231.00&#10;M 253.00 235.00 &#10;C 267.40 237.45 262.75 262.56 248.00 259.00 C 233.25 255.44 236.93 232.26 253.00 235.00&#10;M 230.00 256.00 &#10;C 233.65 257.30 231.46 264.45 227.32 262.66 C 223.18 260.87 225.95 254.56 230.00 256.00&#10;M 274.00 256.00 &#10;C 277.83 258.35 273.45 265.23 269.78 262.22 C 266.11 259.21 270.88 254.08 274.00 256.00&#10;M 253.00 269.00 &#10;C 255.85 270.85 252.14 277.57 248.33 274.67 C 244.52 271.77 249.50 266.73 253.00 269.00&#10;M 231.00 274.00 &#10;C 243.20 276.39 237.97 296.09 236.01 304.01 C 234.05 311.92 230.25 328.76 220.33 329.33 C 210.41 329.89 200.38 323.69 194.25 315.75 C 188.12 307.81 198.97 295.56 205.25 290.25 C 211.53 284.94 221.77 272.19 231.00 274.00&#10;M 274.00 274.00 &#10;C 282.69 275.45 288.93 286.69 296.25 291.75 C 303.56 296.82 311.41 310.41 304.25 317.25 C 297.08 324.08 287.15 332.45 276.99 329.01 C 266.84 325.57 267.46 309.27 264.01 300.99 C 260.56 292.72 259.09 271.51 274.00 274.00 Z"/>
</g>
<g stroke="None" fillOpacity="0.00" fill="#000000">
<path d="M 220.00 164.00 &#10;C 210.90 163.77 198.15 171.64 193.78 179.78 C 189.40 187.92 199.33 199.12 206.25 204.75 C 213.18 210.38 220.53 221.28 230.97 218.97 C 241.42 216.67 238.97 197.28 235.78 189.22 C 232.59 181.17 231.19 164.28 220.00 164.00 Z"/>
</g>
<g stroke="None" fillOpacity="0.00" fill="#000000">
<path d="M 282.00 164.00 &#10;C 270.34 163.63 267.54 178.48 264.99 186.99 C 262.45 195.50 258.04 214.39 267.98 219.02 C 277.91 223.66 286.67 210.34 293.25 205.25 C 299.82 200.16 310.74 188.27 306.77 180.23 C 302.80 172.19 290.49 164.27 282.00 164.00 Z"/>
</g>
<g stroke="None" fillOpacity="0.84" fill="#464646">
<path d="M 254.00 170.00 &#10;C 251.44 173.11 248.80 171.13 246.00 170.00&#10;C 246.89 175.21 242.77 190.16 250.97 188.97 C 259.17 187.79 253.91 174.81 254.00 170.00 Z"/>
</g>
<g stroke="None" fillOpacity="0.83" fill="#464646">
<path d="M 161.00 191.00 &#10;C 156.95 189.59 146.07 178.35 142.33 185.33 C 138.59 192.30 153.85 197.02 158.00 198.00&#10;C 155.09 194.59 159.41 193.22 161.00 191.00 Z"/>
</g>
<g stroke="None" fillOpacity="0.82" fill="#464646">
<path d="M 342.00 198.00 &#10;C 346.09 196.42 361.14 192.45 357.75 185.25 C 354.36 178.05 343.23 189.36 339.00 190.00&#10;C 339.29 192.81 345.48 194.27 342.00 198.00 Z"/>
</g>
<g stroke="None" fillOpacity="0.95" fill="#4A4A4A">
<path d="M 364.00 191.00 &#10;C 358.82 196.43 351.06 200.16 344.00 203.00&#10;C 354.90 229.70 357.07 262.51 344.00 289.00&#10;C 350.51 293.52 359.00 295.81 364.00 302.00&#10;C 382.19 268.58 380.49 224.80 364.00 191.00 Z"/>
</g>
<g stroke="None" fillOpacity="0.95" fill="#4A4A4A">
<path d="M 156.00 204.00 &#10;C 148.93 200.12 141.95 195.75 135.00 192.00&#10;C 119.61 225.71 119.06 267.35 135.00 301.00&#10;C 142.26 298.16 148.47 292.34 156.00 290.00&#10;C 144.87 263.14 143.63 230.69 156.00 204.00 Z"/>
</g>
<g stroke="None" fillOpacity="0.83" fill="#444444">
<path d="M 182.00 213.00 &#10;C 186.06 214.39 197.24 225.50 200.67 218.67 C 204.10 211.84 189.34 206.59 185.00 206.00&#10;C 187.63 208.97 184.12 211.50 182.00 213.00 Z"/>
</g>
<g stroke="None" fillOpacity="0.82" fill="#444444">
<path d="M 315.00 206.00 &#10;C 310.29 206.08 295.31 212.97 299.75 219.24 C 304.19 225.52 313.19 213.93 318.00 213.00&#10;C 317.70 210.28 311.40 210.03 315.00 206.00 Z"/>
</g>
<g stroke="None" fillOpacity="0.00" fill="#000000">
<path d="M 253.00 219.00 &#10;C 249.37 216.71 244.64 221.85 248.33 224.67 C 252.02 227.49 256.14 220.98 253.00 219.00 Z"/>
</g>
<g stroke="None" fillOpacity="0.00" fill="#000000">
<path d="M 178.00 227.00 &#10;C 163.90 224.99 160.16 235.73 160.00 248.00 C 159.85 260.26 166.58 269.01 179.00 266.00 C 191.42 262.98 197.48 261.93 208.92 256.92 C 220.37 251.92 217.84 239.37 207.08 235.92 C 196.31 232.48 188.68 228.53 178.00 227.00 Z"/>
</g>
<g stroke="None" fillOpacity="0.00" fill="#000000">
<path d="M 284.00 241.00 &#10;C 279.74 256.63 296.59 259.43 308.33 263.67 C 320.07 267.92 337.22 270.37 340.00 254.00 C 342.78 237.63 334.87 223.61 319.01 228.01 C 303.15 232.41 297.04 232.52 284.00 241.00 Z"/>
</g>
<g stroke="None" fillOpacity="0.00" fill="#000000">
<path d="M 230.00 231.00 &#10;C 225.95 229.56 223.18 235.87 227.32 237.66 C 231.46 239.45 233.65 232.30 230.00 231.00 Z"/>
</g>
<g stroke="None" fillOpacity="0.00" fill="#000000">
<path d="M 274.00 231.00 &#10;C 270.88 229.08 266.11 234.21 269.78 237.22 C 273.45 240.23 277.83 233.35 274.00 231.00 Z"/>
</g>
<g stroke="None" fillOpacity="0.00" fill="#000000">
<path d="M 253.00 235.00 &#10;C 236.93 232.26 233.25 255.44 248.00 259.00 C 262.75 262.56 267.40 237.45 253.00 235.00 Z"/>
</g>
<g stroke="None" fillOpacity="0.00" fill="#000000">
<path d="M 230.00 256.00 &#10;C 225.95 254.56 223.18 260.87 227.32 262.66 C 231.46 264.45 233.65 257.30 230.00 256.00 Z"/>
</g>
<g stroke="None" fillOpacity="0.00" fill="#000000">
<path d="M 274.00 256.00 &#10;C 270.88 254.08 266.11 259.21 269.78 262.22 C 273.45 265.23 277.83 258.35 274.00 256.00 Z"/>
</g>
<g stroke="None" fillOpacity="0.00" fill="#000000">
<path d="M 253.00 269.00 &#10;C 249.50 266.73 244.52 271.77 248.33 274.67 C 252.14 277.57 255.85 270.85 253.00 269.00 Z"/>
</g>
<g stroke="None" fillOpacity="0.82" fill="#444444">
<path d="M 185.00 288.00 &#10;C 188.97 286.18 204.35 281.28 200.75 274.25 C 197.14 267.22 186.24 279.52 182.00 280.00&#10;C 183.37 282.64 187.94 283.66 185.00 288.00 Z"/>
</g>
<g stroke="None" fillOpacity="0.82" fill="#454545">
<path d="M 318.00 280.00 &#10;C 313.48 279.00 303.45 267.26 299.33 274.33 C 295.21 281.40 310.57 286.23 315.00 287.00&#10;C 312.09 283.59 316.41 282.22 318.00 280.00 Z"/>
</g>
<g stroke="None" fillOpacity="0.00" fill="#000000">
<path d="M 231.00 274.00 &#10;C 221.77 272.19 211.53 284.94 205.25 290.25 C 198.97 295.56 188.12 307.81 194.25 315.75 C 200.38 323.69 210.41 329.89 220.33 329.33 C 230.25 328.76 234.05 311.92 236.01 304.01 C 237.97 296.09 243.20 276.39 231.00 274.00 Z"/>
</g>
<g stroke="None" fillOpacity="0.00" fill="#000000">
<path d="M 274.00 274.00 &#10;C 259.09 271.51 260.56 292.72 264.01 300.99 C 267.46 309.27 266.84 325.57 276.99 329.01 C 287.15 332.45 297.08 324.08 304.25 317.25 C 311.41 310.41 303.56 296.82 296.25 291.75 C 288.93 286.69 282.69 275.45 274.00 274.00 Z"/>
</g>
<g stroke="None" fillOpacity="0.83" fill="#454545">
<path d="M 158.00 295.00 &#10;C 154.08 296.86 138.87 300.55 142.25 307.75 C 145.63 314.95 156.98 303.68 161.00 303.00&#10;C 160.71 300.19 154.52 298.73 158.00 295.00 Z"/>
</g>
<g stroke="None" fillOpacity="0.83" fill="#454545">
<path d="M 339.00 303.00 &#10;C 343.36 303.60 355.36 314.63 358.00 307.00 C 360.64 299.37 345.74 297.05 342.00 295.00&#10;C 345.37 298.69 339.42 300.29 339.00 303.00 Z"/>
</g>
<g stroke="None" fillOpacity="0.84" fill="#454545">
<path d="M 254.00 323.00 &#10;C 253.19 317.87 257.04 303.00 249.03 304.03 C 241.01 305.05 245.95 318.31 246.00 323.00&#10;C 248.56 319.89 251.20 321.87 254.00 323.00 Z"/>
</g>
<g stroke="None" fillOpacity="0.92" fill="#494949">
<path d="M 166.00 306.00 &#10;C 158.36 308.37 152.37 315.92 144.00 316.00&#10;C 158.10 339.28 182.03 358.86 208.00 366.00&#10;C 197.77 368.21 185.54 367.61 174.67 368.67 C 163.80 369.73 151.57 369.41 141.00 371.00 C 130.43 372.59 118.03 371.91 108.01 374.01 C 97.98 376.11 85.24 373.77 80.00 381.00&#10;C 193.67 381.00 307.33 381.00 421.00 381.00&#10;C 415.58 373.76 402.08 376.26 392.00 374.00 C 381.92 371.74 369.55 372.77 359.00 371.00 C 348.46 369.23 336.11 369.85 325.22 368.78 C 314.33 367.71 302.36 368.10 292.00 366.00&#10;C 317.93 358.74 341.95 339.41 356.00 316.00&#10;C 348.54 315.84 341.57 308.00 334.00 306.00&#10;C 330.31 312.29 325.31 317.59 319.75 322.75 C 314.20 327.91 308.37 331.78 302.08 336.08 C 295.79 340.37 287.02 342.25 280.22 345.22 C 273.42 348.20 259.03 346.42 259.00 355.00 C 258.97 363.58 261.53 377.01 250.00 377.00 C 238.47 376.98 239.17 365.33 240.00 356.00 C 240.83 346.67 226.87 347.89 219.68 345.32 C 212.49 342.75 204.65 340.01 198.08 335.92 C 191.51 331.83 185.71 328.03 180.25 322.75 C 174.78 317.47 169.84 312.29 166.00 306.00 Z"/>
</g>
<g stroke="None" fillOpacity="0.82" fill="#454545">
<path d="M 254.00 351.00 &#10;C 251.70 353.38 248.29 353.62 246.00 351.00&#10;C 246.01 355.22 241.01 370.12 248.97 370.97 C 256.94 371.83 253.33 355.74 254.00 351.00 Z"/>
</g>
</svg>